# xmcd CD database file
#
# Track frame offsets:
#	150
#	9572
#	21531
#	32153
#	44208
#	63762
#	79967
#	94348
#	106780
#	120223
#	130024
#	138623
#
# Disc length: 2065 seconds
#
# Revision: 0
# Processed by: cddbd v1.5.2PL0 Copyright (c) Steve Scherf et al.
# Submitted via: CDex 1.77
#
DISCID=a0080f0c
DTITLE=Los Freneticos - El PLaya
DYEAR=2012
DGENRE=Salsa
TTITLE0=Mediterranean Surfers
TTITLE1=Daddy's Beach
TTITLE2=Rompan Todo
TTITLE3=Frenetiqueando
TTITLE4=Casa Arab
TTITLE5=Aguero el Mesias
TTITLE6=Bajo la Atenta Mirada de Giuliano Gemma
TTITLE7=Bambino
TTITLE8=La PLaya
TTITLE9=Golpe Beat
TTITLE10=Radio to Birdman
TTITLE11=Evil Sun
EXTD=YEAR: 2012
EXTT0=
EXTT1=
EXTT2=
EXTT3=
EXTT4=
EXTT5=
EXTT6=
EXTT7=
EXTT8=
EXTT9=
EXTT10=
EXTT11=
PLAYORDER=
